<svg width="15" height="16" viewBox="0 0 15 16" fill="none" xmlns="http://www.w3.org/2000/svg">
<path d="M14.1212 9.54852V6.45159C14.6229 6.34363 15.0001 5.89679 15.0001 5.36332C15.0001 4.482 14.0217 3.95527 13.2884 4.42461L11.0755 2.21168C11.5449 1.47832 11.018 0.5 10.1368 0.5C9.44588 0.5 8.91595 1.12772 9.04199 1.81456L6.46637 2.88487L5.79863 2.2171C6.27092 1.48892 5.7519 0.5 4.86332 0.5C3.98314 0.5 3.45454 1.47723 3.92461 2.21171L1.71168 4.42464C0.97823 3.95515 0 4.48227 0 5.36332C0 6.05558 0.628891 6.58383 1.31456 6.45812L1.95532 8.00005L1.31456 9.54199C0.626401 9.41572 0 9.9472 0 10.6368C0 11.5181 0.978406 12.0448 1.71168 11.5755L3.92461 13.7884C3.45515 14.5219 3.98227 15.5001 4.86332 15.5001C5.39679 15.5001 5.8436 15.1229 5.95156 14.6212H9.04852C9.15648 15.1229 9.60332 15.5001 10.1368 15.5001C10.7506 15.5001 11.2501 15.0007 11.2501 14.3868C11.2501 13.773 10.7506 13.2735 10.1368 13.2735C9.60329 13.2735 9.15648 13.6508 9.04852 14.1524H6.03781L12.972 11.271C13.5869 12.1609 15.0001 11.7281 15.0001 10.6368C15.0001 10.1033 14.6229 9.65651 14.1212 9.54852ZM2.20856 10.4381L2.8572 10.1704L4.19939 13.4002L2.0452 11.2461C2.20291 11.0061 2.25907 10.7174 2.20856 10.4381ZM8.31946 5.4009L7.32055 7.82061L3.11062 9.5586L2.46295 8.00005L3.94172 4.44154L6.35653 3.43794L8.31946 5.4009ZM10.5684 6.9869L11.8895 6.44151L13.2166 9.63512L10.5684 6.9869ZM12.3228 6.26262L12.9703 5.99528C13.131 6.22925 13.3747 6.39223 13.6524 6.45153V9.4623L12.3228 6.26262ZM12.7915 5.56198L12.1429 5.82976L10.8007 2.5999L12.9549 4.75408C12.7972 4.99403 12.741 5.28275 12.7915 5.56198ZM9.93825 2.70856C10.0676 2.73197 10.2004 2.73335 10.3381 2.70809L11.7096 6.00864L10.2094 6.62795L8.87218 5.29069L9.93825 2.70856ZM9.74023 6.82167L7.93189 7.56821L8.67844 5.75991L9.74023 6.82167ZM7.06816 8.43192L5.06198 13.2916C4.92841 13.2674 4.79573 13.2675 4.66205 13.292L3.29047 9.99149L7.06816 8.43192ZM5.77777 13.7529C5.70124 13.6429 5.60524 13.5472 5.49508 13.4709L7.67953 8.17956L10.0992 7.18064L12.9515 10.033C12.7943 10.2754 12.7416 10.5634 12.7921 10.8382L5.77777 13.7529ZM9.22231 2.24722C9.29884 2.35717 9.3949 2.453 9.50512 2.52929L8.51318 4.93165L6.82484 3.24332L9.22231 2.24722ZM4.19663 3.82806L4.66205 2.70806C4.93735 2.7586 5.22525 2.70546 5.46713 2.54857L5.99802 3.07946L4.19663 3.82806ZM2.0999 4.69939L4.19939 2.5999L3.58306 4.08306L2.0999 4.69939ZM1.74742 6.27821C2.10573 6.03067 2.28769 5.59605 2.20812 5.16205L3.32812 4.69657L2.20915 7.3893L1.74742 6.27821ZM2.67731 9.73749L2.02923 10.005C1.95294 9.89487 1.85714 9.79884 1.74725 9.72231L2.20915 8.61084L2.67731 9.73749Z" fill="#6486DB"/>
</svg>
