<svg width="18" height="18" viewBox="0 0 18 18" fill="none" xmlns="http://www.w3.org/2000/svg">
<path d="M9 18C8.61765 18 8.30769 17.69 8.30769 17.3077V10.6923C8.30769 10.14 7.85998 9.69231 7.30769 9.69231H0.692309C0.309958 9.69231 0 9.38235 0 9C0 8.61765 0.309957 8.30769 0.692308 8.30769H7.30769C7.85998 8.30769 8.30769 7.85998 8.30769 7.30769V0.692309C8.30769 0.309958 8.61765 0 9 0C9.38235 0 9.69231 0.309957 9.69231 0.692308V7.30769C9.69231 7.85998 10.14 8.30769 10.6923 8.30769H17.3077C17.69 8.30769 18 8.61765 18 9C18 9.38235 17.69 9.69231 17.3077 9.69231H10.6923C10.14 9.69231 9.69231 10.14 9.69231 10.6923V17.3077C9.69231 17.69 9.38235 18 9 18Z" fill="white"/>
</svg>
