<svg width="22" height="23" viewBox="0 0 22 23" fill="none" xmlns="http://www.w3.org/2000/svg">
<path d="M20.8365 17.3154L19.9195 15.9423C18.3357 13.6808 17.5021 11.0154 17.5021 8.26923C17.5021 5.36154 15.5014 3.01923 12.8339 2.21154C12.5838 1.48462 11.8336 1 11 1C10.1664 1 9.41616 1.48462 9.16608 2.21154C6.49856 3.01923 4.49792 5.36154 4.49792 8.26923C4.49792 11.0154 3.66432 13.6808 2.08047 15.9423L1.16351 17.3154C0.746712 17.9615 1.16351 18.7692 1.99711 18.7692H20.0029C20.8365 18.7692 21.2533 17.9615 20.8365 17.3154Z" stroke="white" stroke-miterlimit="10" stroke-linecap="round" stroke-linejoin="round"/>
<path d="M14.3336 18.7693C14.3336 20.5462 12.8331 22.0001 10.9992 22.0001C9.16528 22.0001 7.66479 20.5462 7.66479 18.7693" stroke="white" stroke-miterlimit="10" stroke-linecap="round" stroke-linejoin="round"/>
</svg>
