<svg width="26" height="26" viewBox="0 0 26 26" fill="none" xmlns="http://www.w3.org/2000/svg">
<path d="M13 23.8334C18.983 23.8334 23.8333 18.9832 23.8333 13.0001C23.8333 7.017 18.983 2.16675 13 2.16675C7.01687 2.16675 2.16663 7.017 2.16663 13.0001C2.16663 18.9832 7.01687 23.8334 13 23.8334Z" stroke="white" stroke-linecap="round" stroke-linejoin="round"/>
<path d="M9.84753 9.74988C10.1022 9.02586 10.6049 8.41533 11.2667 8.02645C11.9284 7.63756 12.7063 7.4954 13.4628 7.62516C14.2193 7.75491 14.9054 8.1482 15.3997 8.73537C15.894 9.32254 16.1645 10.0657 16.1634 10.8332C16.1634 12.9999 12.9134 14.0832 12.9134 14.0832" stroke="white" stroke-linecap="round" stroke-linejoin="round"/>
<path d="M13 18.4167H13.0105" stroke="white" stroke-linecap="round" stroke-linejoin="round"/>
</svg>
