<svg width="26" height="26" viewBox="0 0 26 26" fill="none" xmlns="http://www.w3.org/2000/svg">
<path d="M1.96484 5.98829C1.96484 3.766 3.76637 1.96448 5.98865 1.96448H16.7188C18.9412 1.96448 20.7426 3.766 20.7426 5.98829V16.7184C20.7426 18.9408 18.9412 20.7423 16.7188 20.7423H5.98865C3.76637 20.7423 1.96484 18.9408 1.96484 16.7184V5.98829Z" stroke="white" stroke-linecap="round" stroke-linejoin="round"/>
<path d="M23.2699 8.10327V20.0199C23.2699 21.8149 21.8149 23.2699 20.0199 23.2699H8.10327" stroke="white" stroke-linecap="round" stroke-linejoin="round"/>
<path d="M11.7753 13.983C10.4437 14.8264 8.7052 13.8696 8.7052 12.2934V10.4133C8.7052 8.8371 10.4437 7.88033 11.7753 8.7237L13.2596 9.66373C14.4994 10.449 14.4994 12.2578 13.2596 13.043L11.7753 13.983Z" stroke="white" stroke-linecap="round" stroke-linejoin="round"/>
</svg>
