<svg width="845" height="845" viewBox="0 0 845 845" fill="none" xmlns="http://www.w3.org/2000/svg">
<path fill-rule="evenodd" clip-rule="evenodd" d="M77.489 441.794C76.1539 440.85 73.899 440.669 72.299 440.867C68.4812 443.383 57.3183 471.016 51.6316 485.093C50.3807 488.189 49.3948 490.63 48.8103 492.003C48.034 493.826 47.1422 495.738 46.2283 497.698C43.7916 502.924 41.1972 508.487 40.2139 513.59C39.9795 514.804 40.0523 515.623 40.5777 516.768C42.5277 518.626 44.4816 519.35 47.1992 519.247C47.3646 519.241 47.504 519.239 47.6242 519.237C48.3117 519.228 48.3679 519.227 49.0584 518.475C52.4606 514.76 55.2514 506.619 57.0771 501.294C57.2198 500.877 57.3565 500.479 57.4872 500.1L80.2903 499.627L91.8493 499.707L98.4832 514.303C98.6853 514.719 98.8746 515.146 99.0638 515.572C99.8056 517.244 100.546 518.912 102.054 519.949C102.331 519.931 102.607 519.914 102.881 519.898C104.965 519.773 106.953 519.654 108.941 518.857C109.972 517.551 110.201 516.292 110.067 514.657C109.795 511.304 107.941 507.516 106.261 504.084C105.69 502.916 105.139 501.789 104.677 500.735L88.499 464.514L80.9481 447.379C80.7891 447.054 80.626 446.699 80.4558 446.328C79.7007 444.682 78.8036 442.726 77.489 441.794ZM88.1612 490.657L74.6901 460.283L61.5144 490.602L75.2253 490.671L88.1612 490.657Z" fill="white"/>
<path d="M128.978 440.17C129.377 440.109 129.739 440.028 130.152 440.089C131.54 440.301 132.117 440.683 133.065 441.621C137.031 445.557 140.208 451.055 143.45 455.609C148.952 463.336 154.903 470.909 159.764 479.045L177.988 454.487C181.285 449.991 185.215 443.031 190.023 440.17C192.788 439.878 193.165 440.454 195.484 441.844C198.725 445.916 197.223 459.952 197.237 465.255C197.273 481.552 198.463 498.838 196.894 515.027C195.712 516.876 194.037 517.706 192.189 518.815C189.867 518.873 189.483 519.102 187.749 517.383C185.316 514.963 185.767 509.269 185.742 506.016L185.65 480.978L185.48 462.882C179.231 473.736 170.749 483.708 163.29 493.788C161.144 494.496 160.06 494.819 157.844 493.788C154.97 492.449 152.121 487.296 150.229 484.666C145.708 478.388 139.902 471.934 137.014 464.681L136.727 463.935L136.409 463.862C135.233 475.288 135.534 486.819 135.509 498.292C135.495 504.161 135.927 510.294 134.89 516.071C133.187 517.559 132.599 517.898 130.269 518.302C127.813 518.731 126.634 518.194 124.73 516.768C123.105 510.598 123.774 503.114 123.749 496.738L123.685 464.027L123.702 449.763C123.707 447.813 123.468 445.437 124.36 443.652C125.497 441.376 126.754 441.106 128.978 440.17Z" fill="white"/>
<path fill-rule="evenodd" clip-rule="evenodd" d="M407.046 44.1848C403.737 44.1405 400.302 44.0945 397.267 44.596C361.38 47.2059 326.684 53.7042 292.595 65.3629C291.821 65.6277 290.879 65.918 289.845 66.2367L289.843 66.2373L289.843 66.2373C285.693 67.5164 280.06 69.2527 277.836 71.6319C276.487 73.0745 276.258 74.7635 276.626 76.6433L278.424 81.9918C286.066 82.9124 294.028 82.7913 301.864 82.6722L301.865 82.6722C304.544 82.6314 307.208 82.5909 309.84 82.5923L378.093 82.5884C381.359 82.5893 384.691 82.5129 388.046 82.436C395.845 82.2573 403.771 82.0756 411.301 82.8539C413.835 83.1157 415.543 83.4697 417.567 85.0359C420.591 89.9212 420.508 99.4669 419.214 105.01C418.885 106.412 418.579 107.621 417.784 108.845C411.414 109.847 404.987 109.813 398.558 109.779C397.367 109.772 396.175 109.766 394.984 109.766L221.025 109.71C220.02 109.711 218.996 109.697 217.962 109.682H217.962H217.961C213.615 109.619 209.08 109.554 204.978 110.639C196.424 112.902 177.219 127.352 172.116 134.285C171.173 135.568 171.009 136.346 171.31 137.82C171.859 140.512 172.598 141.659 174.872 143.208C180.354 144.235 186.512 144.086 192.402 143.944C194.44 143.895 196.446 143.846 198.38 143.848L354.618 143.854L419.708 144.054L419.841 171.062L142.851 170.956C142.308 170.955 141.427 170.901 140.41 170.84L140.409 170.84C137.841 170.685 134.412 170.479 133.408 170.92C132.611 171.268 131.601 172.32 130.825 173.13C130.627 173.336 130.444 173.527 130.283 173.686C125.415 178.512 121.218 183.897 117.01 189.297L117.007 189.301C116.657 189.75 116.293 190.194 115.929 190.64L115.929 190.64L115.928 190.641C114.076 192.907 112.209 195.191 111.932 198.191C112.009 198.432 112.082 198.659 112.15 198.874C112.83 201.011 113.142 201.993 114.945 203.679C120.512 205.076 127.383 204.869 133.724 204.679H133.724L133.725 204.679C135.863 204.614 137.941 204.552 139.889 204.553L389.881 204.531C392.406 204.532 394.939 204.511 397.475 204.491C404.903 204.431 412.361 204.371 419.741 204.84L419.883 231.853L87.4757 232.309L87.1568 232.759C82.0491 239.95 72.5173 253.37 74.1495 262.469C74.1903 262.696 74.2126 262.87 74.2304 263.008C74.2964 263.522 74.2987 263.54 74.9467 263.918C77.4642 265.382 81.7377 265.529 84.6934 265.631H84.6936L84.9337 265.639L127.039 265.739L419.78 265.678L419.68 292.796L56.8904 293.612L50.6524 312.439C50.4966 312.95 50.3137 313.498 50.1237 314.067L50.1232 314.069L50.1229 314.069C49.4567 316.066 48.7028 318.324 48.718 320.177C48.728 321.344 49.3195 322.577 49.8374 323.656C49.8976 323.781 49.9569 323.905 50.0141 324.026C50.2019 324.161 50.4243 324.343 50.6614 324.537L50.6618 324.537L50.6622 324.537C51.1852 324.965 51.7795 325.452 52.23 325.616C53.0328 325.912 54.4552 325.913 55.6865 325.915C56.1953 325.915 56.6714 325.915 57.0577 325.937L61.6547 326H414.262C415.129 325.997 415.996 325.998 416.862 326.002C417.075 326.001 417.287 326 417.5 326C418.7 326 419.896 326.018 421.086 326.053C430.302 326.245 439.469 327.006 448.384 329.363C459.851 332.393 470.717 337.343 480.304 344.228C488.131 349.262 495.242 355.21 501.463 361.91L501.563 361.971C503.982 363.015 570.62 362.561 604.341 362.331H604.346L604.359 362.331C613.092 362.271 619.614 362.227 622.237 362.227L773.449 362.255C775.017 362.254 776.858 362.319 778.841 362.39C785.666 362.632 794.179 362.935 799.07 360.787C800.888 357.988 799.891 353.439 799.159 350.096C799.121 349.925 799.085 349.758 799.049 349.595C799.025 349.484 799.001 349.374 798.978 349.267L794.622 331.098C794.496 330.593 794.372 330.069 794.245 329.533L794.245 329.533C793.446 326.168 792.536 322.336 790.533 319.703C787.258 318.353 783.351 318.344 779.71 318.337H779.708H779.707C778.985 318.335 778.274 318.333 777.58 318.321L754.039 318.263L518.312 318.324L421.204 317.971L421.414 302.094L730.873 301.941L770.247 301.737C770.535 301.724 770.845 301.713 771.171 301.701C774.357 301.582 779.119 301.405 781.223 299.295C782.369 298.148 782.305 297.049 782.222 295.601C782.217 295.516 782.212 295.43 782.207 295.342C782.204 295.288 782.202 295.233 782.199 295.178C781.856 288.357 769.893 262.241 765.411 258.043C764.844 257.514 763.365 257.535 762.282 257.551C761.982 257.555 761.712 257.559 761.5 257.55L673.415 257.372L504.498 257.4L421.204 256.832L421.246 241.328L657.842 241.011H713.739L737.387 240.944C737.955 240.932 738.524 240.924 739.093 240.916C743.16 240.856 747.264 240.796 751.151 239.523C752.444 237.972 752.767 236.053 752.662 234.053C752.466 230.307 732.105 200.28 728.599 197.581C727.255 196.548 725.265 196.247 723.626 196.169L693.005 196.094L421.308 196.03L421.31 180.028L618.965 179.775C627.164 179.776 635.433 179.9 643.726 180.025H643.727C662.124 180.301 680.642 180.579 698.783 179.527C698.919 179.519 699.056 179.511 699.194 179.504L699.197 179.503L699.199 179.503C700.959 179.407 702.796 179.307 704.093 177.972C705.645 176.376 706.448 174.516 707.1 172.427C706.122 167.94 677.189 140.286 671.955 137.013C669.362 135.392 664.978 135.073 661.931 134.927L581.877 134.824L421.154 134.831L421.26 118.146L602.157 118.076C604.068 118.075 606.006 118.103 607.958 118.132C614.19 118.225 620.558 118.32 626.608 117.441C628.548 117.159 630.066 115.955 631.593 114.743C632.01 114.413 632.427 114.082 632.854 113.768C633.283 111.462 632.762 109.337 631.369 107.353C629.466 104.641 624.952 102.148 621.382 100.176L621.379 100.174C620.479 99.6769 619.638 99.2126 618.915 98.7864C604.8 90.4707 590.005 81.8974 574.652 76.1225C569.761 74.2821 563.73 74.3886 558.223 74.4859C556.989 74.5077 555.782 74.529 554.62 74.5279L452.91 74.5535L436.568 74.5813C435.821 74.586 435.029 74.613 434.216 74.6406C431.787 74.7233 429.173 74.8123 427.013 74.3323C424.636 73.8037 422.559 71.713 421.65 69.5017C420.831 67.5118 421.152 64.6936 421.965 62.753C422.877 60.5779 424.087 58.9607 426.428 58.3098C427.54 58.0009 429.665 57.915 431.988 57.8211C436.077 57.6557 440.78 57.4656 441.652 55.991C443.2 53.3764 442.505 48.5294 442.07 45.4925C442.052 45.3673 442.034 45.2452 442.017 45.1264C433.901 43.6537 424.901 43.8751 416.374 44.0848L416.374 44.0848C414.552 44.1297 412.752 44.174 410.986 44.2011C409.717 44.2206 408.392 44.2028 407.046 44.1848ZM528.686 423.061C527.412 407.008 522.304 391.96 514.223 378.728C525.222 377.376 585.074 379.218 585.074 379.218L765.341 379.212L786.349 379.246C787.079 379.249 787.827 379.244 788.587 379.239C792.605 379.211 796.953 379.182 800.659 380.418C802.262 380.953 803.99 382.223 804.575 383.869C805.58 386.693 805.833 390.268 806.057 393.447V393.448C806.1 394.06 806.143 394.659 806.189 395.234C806.266 396.181 806.345 397.128 806.424 398.074C806.807 402.633 807.189 407.184 807.254 411.768C807.259 412.152 807.271 412.551 807.282 412.959L807.283 412.964C807.348 415.193 807.421 417.694 806.496 419.628C805.534 421.638 804.471 422.004 802.758 422.594L802.756 422.594L802.755 422.595C802.454 422.698 802.133 422.809 801.788 422.937C787.828 423.769 773.602 423.584 759.465 423.399H759.464C753.437 423.321 747.426 423.243 741.459 423.243L560.913 423.218L560.223 423.218C549.62 423.216 543.52 423.215 528.686 423.061ZM515.511 481.104C522.596 468.838 527.161 455.095 528.551 440.49C535.08 439.869 541.996 440.021 548.729 440.169L548.732 440.169C551.649 440.233 554.532 440.296 557.334 440.295L731.071 440.315L793.66 440.426C793.944 440.435 794.229 440.442 794.514 440.449C797.899 440.537 801.295 440.625 804.414 442.125C806.067 442.919 806.641 444.691 807.101 446.409C808.466 451.529 805.977 478.538 803.212 483.143C801.097 484.407 799.218 485.034 796.824 485.594L594.843 486H545C540.22 485.998 535.62 485.999 530.176 485.999H530.149L526.66 486L522.96 486L520 486C517.035 486 515.834 484.001 515.511 481.104ZM481.133 517.233C487.672 512.946 493.701 508.015 499.116 502.539L553.775 502.314H746.566C751.136 502.315 755.747 502.249 760.374 502.182H760.375H760.376H760.377C771.266 502.025 782.24 501.866 792.961 502.582C795.436 502.749 797.599 502.905 799.461 504.582C799.678 507.367 799.776 509.813 799.226 512.587L793.61 536.157C793.455 536.757 793.308 537.427 793.154 538.128L793.154 538.129C792.63 540.513 792.024 543.268 790.767 544.944L786.58 545.134C778.89 546.147 770.659 545.966 762.629 545.789H762.628C759.573 545.721 756.547 545.655 753.59 545.655L440.621 545.658C439.347 545.661 437.872 545.611 436.298 545.558H436.297H436.297H436.296C431.215 545.386 425.102 545.179 421.355 546.635L421.221 562.035L518.685 562.615L683.99 562.587C686.578 562.586 691.412 562.53 697.59 562.457H697.592H697.593C724.04 562.147 775.108 561.549 779.963 563.829C780.917 564.278 781.078 564.356 781.443 565.378C782.922 569.49 781.258 573.396 779.636 577.202L779.632 577.211L779.619 577.24C779.525 577.462 779.431 577.683 779.337 577.903C779.22 578.18 779.104 578.457 778.991 578.734L766.133 606.604L421.288 607.365V623.091L511.043 623.637L717.106 623.631C719.901 623.629 722.719 623.585 725.544 623.54H725.545H725.546C732.108 623.436 738.713 623.332 745.175 623.762C747.268 623.904 749.267 624.255 751.151 625.199C752.107 627.266 752.684 630.255 751.795 632.413C750.386 635.836 748.105 639.17 745.95 642.32L745.949 642.321L745.618 642.805C745.493 642.989 745.368 643.172 745.244 643.354C745.127 643.525 745.012 643.695 744.897 643.865C744.797 644.013 744.697 644.162 744.598 644.31L733.172 660.88C732.955 661.18 732.689 661.561 732.39 661.991C730.894 664.136 728.547 667.503 727.024 668.197C725.303 668.981 578.721 668.542 508.344 668.331C490.267 668.277 477.218 668.238 472.943 668.239L437.505 668.272C436.532 668.275 435.375 668.239 434.121 668.201C429.812 668.069 424.36 667.902 421.316 669.119L421.296 684.522C439.597 685.997 458.332 685.749 476.902 685.503H476.903H476.904H476.905C483.863 685.411 490.797 685.319 497.677 685.319L632.258 685.254C634.028 685.254 637.218 685.197 641.308 685.125L641.371 685.124L641.378 685.123C660.633 684.781 699.658 684.086 704.463 687.176C705.026 688.694 705.375 690.123 705.375 691.756C705.372 695.275 703.216 697.423 700.901 699.731L700.739 699.892L700.627 700.004C700.569 700.062 700.51 700.12 700.452 700.178C696.935 703.702 673.794 726.664 670.24 727.578C666.121 728.635 660.502 728.429 655.491 728.245H655.49H655.489C653.659 728.178 651.91 728.114 650.345 728.116L421.271 728.13L421.199 744.767L605.544 744.811C607.85 744.813 610.178 744.779 612.513 744.745H612.514H612.514H612.515C617.655 744.67 622.831 744.595 627.89 744.898C629.281 744.981 630.9 745.148 632.057 745.992C633.261 746.87 634.195 749.206 634.368 750.647C634.568 752.307 634.501 753.557 633.386 754.889C631.623 756.994 628.621 758.84 626.128 760.373C625.768 760.594 625.419 760.808 625.086 761.016L609.859 769.927L589.163 780.784C588.945 780.896 588.727 781.008 588.508 781.121C588.324 781.216 588.14 781.311 587.956 781.406L587.643 781.568L587.624 781.578C582.608 784.17 577.309 786.908 571.87 788.255C566.929 789.475 561.628 789.434 556.493 789.394C555.534 789.386 554.58 789.379 553.636 789.38L442.505 789.355L421.31 789.396L421.196 806.039C422.695 806.042 424.374 805.979 426.144 805.913C432.04 805.692 438.94 805.433 443.5 807.46C444.456 808.554 444.674 809.267 444.802 810.73C445.033 813.381 444.922 816.222 443.21 818.284C431.811 820.342 419.749 819.834 408.206 819.348L407.265 819.309C371.231 817.793 335.993 812.078 301.553 801.22C300.283 800.82 298.949 800.423 297.579 800.016C291.651 798.251 285.07 796.292 280.25 793.09C278.588 791.985 278.424 791.019 278.163 789.487C278.103 789.137 278.039 788.758 277.95 788.341L277.981 788.211L278.003 788.12L278.053 787.904C278.38 786.508 278.694 785.167 279.792 784.141C283.437 780.741 370.019 781.496 406.008 781.81H406.009H406.011H406.011H406.013H406.015H406.017C412.544 781.867 417.406 781.909 419.805 781.909L419.51 754.688L358.37 754.304L217.786 754.326C216.92 754.324 215.887 754.361 214.767 754.401C210.955 754.538 206.138 754.71 203.481 753.507C197.118 750.624 174.089 733.962 171.764 727.759L171.772 727.628C171.918 725.081 171.94 724.701 173.902 722.746C175.601 721.051 177.602 720.927 179.862 720.787L179.912 720.784C180.013 720.778 180.114 720.772 180.215 720.765C185.67 720.417 191.248 720.491 196.785 720.565H196.786H196.787H196.787L196.794 720.565C199.095 720.595 201.39 720.626 203.665 720.626L356.282 720.67L419.722 720.461L419.713 693.563C405.023 692.451 389.965 692.657 375.043 692.861H375.042L375.033 692.861C369.22 692.94 363.427 693.019 357.684 693.02L170.758 693.051C167.307 693.051 163.733 692.935 160.117 692.818C152.035 692.556 143.746 692.288 136.156 693.29L135.423 693.399C127.398 686.644 116.77 676.979 112.461 667.177C112.35 664.813 112.606 663.317 113.551 661.144C115.44 659.717 117.436 659.668 119.651 659.614C119.986 659.606 120.325 659.598 120.67 659.585L172.829 659.398L367.284 659.409L419.766 659.562L419.705 632.065L87.3976 631.402L80.4488 619.826C79.9023 618.825 79.3034 617.809 78.6965 616.781C75.7817 611.84 72.6834 606.588 74.3167 601.025C76.2707 599.092 78.8656 598.891 81.4969 598.747C90.2808 598.258 99.2091 598.371 108.089 598.483H108.091C111.915 598.531 115.731 598.58 119.521 598.58L419.448 598.513C420.105 597.221 419.978 594.695 419.876 592.687C419.844 592.053 419.815 591.471 419.814 590.995L419.738 570.977L329.577 570.826L99.2019 570.809C95.982 570.807 92.7403 570.842 89.4882 570.877H89.4865C78.618 570.995 67.6324 571.114 56.9489 569.832C56.1616 567.128 55.0329 564.173 53.8637 561.113C51.2747 554.335 48.487 547.037 48.7654 540.791C48.8629 538.641 49.3842 537.647 51.4774 536.92C52.707 536.492 54.0781 536.198 55.5359 536H406.349C407.278 536.016 408.212 536.033 409.149 536.051H409.15H409.151H409.152H409.152C421.358 536.278 434.158 536.515 445.655 533.912C459.571 530.76 470.749 524.943 481.133 517.233Z" fill="white"/>
</svg>
