<svg width="12" height="18" viewBox="0 0 12 18" fill="none" xmlns="http://www.w3.org/2000/svg">
<path d="M6 10C5.4359 10 4.96154 9.80769 4.57692 9.42307C4.19231 9.03846 4 8.5641 4 8V2C4 1.4359 4.19231 0.961542 4.57692 0.576925C4.96154 0.192308 5.4359 0 6 0C6.5641 0 7.03846 0.192308 7.42307 0.576925C7.80769 0.961542 8 1.4359 8 2V8C8 8.5641 7.80769 9.03846 7.42307 9.42307C7.03846 9.80769 6.5641 10 6 10ZM5.5 17.5V13.9827C3.93333 13.8391 2.625 13.1987 1.575 12.0615C0.525 10.9244 0 9.57052 0 8H1C1 9.38333 1.4875 10.5625 2.4625 11.5375C3.4375 12.5125 4.61667 13 6 13C7.38333 13 8.5625 12.5125 9.5375 11.5375C10.5125 10.5625 11 9.38333 11 8H12C12 9.57052 11.475 10.9244 10.425 12.0615C9.375 13.1987 8.06667 13.8391 6.5 13.9827V17.5H5.5ZM6 9C6.28333 9 6.52083 8.90417 6.7125 8.7125C6.90417 8.52083 7 8.28333 7 8V2C7 1.71667 6.90417 1.47917 6.7125 1.2875C6.52083 1.09583 6.28333 1 6 1C5.71667 1 5.47917 1.09583 5.2875 1.2875C5.09583 1.47917 5 1.71667 5 2V8C5 8.28333 5.09583 8.52083 5.2875 8.7125C5.47917 8.90417 5.71667 9 6 9Z" fill="white"/>
</svg>
