<svg width="26" height="26" viewBox="0 0 26 26" fill="none" xmlns="http://www.w3.org/2000/svg">
<path d="M13.2383 2.16675H12.7617C12.187 2.16675 11.6359 2.39502 11.2296 2.80135C10.8233 3.20768 10.595 3.75878 10.595 4.33341V4.52841C10.5946 4.90837 10.4943 5.28154 10.3042 5.61049C10.114 5.93944 9.84072 6.21261 9.51167 6.40258L9.04584 6.67341C8.71646 6.86358 8.34283 6.96369 7.9625 6.96369C7.58217 6.96369 7.20854 6.86358 6.87917 6.67341L6.71667 6.58675C6.21949 6.29995 5.62883 6.22215 5.07434 6.37042C4.51985 6.51869 4.04685 6.88091 3.75917 7.37758L3.52084 7.78925C3.23404 8.28643 3.15623 8.87709 3.3045 9.43158C3.45277 9.98607 3.815 10.4591 4.31167 10.7467L4.47417 10.8551C4.80163 11.0441 5.07392 11.3156 5.26397 11.6425C5.45402 11.9694 5.55522 12.3403 5.5575 12.7184V13.2709C5.55902 13.6527 5.45962 14.0281 5.26938 14.3591C5.07914 14.6902 4.80481 14.965 4.47417 15.1559L4.31167 15.2534C3.815 15.5411 3.45277 16.0141 3.3045 16.5686C3.15623 17.1231 3.23404 17.7137 3.52084 18.2109L3.75917 18.6226C4.04685 19.1193 4.51985 19.4815 5.07434 19.6297C5.62883 19.778 6.21949 19.7002 6.71667 19.4134L6.87917 19.3267C7.20854 19.1366 7.58217 19.0365 7.9625 19.0365C8.34283 19.0365 8.71646 19.1366 9.04584 19.3267L9.51167 19.5976C9.84072 19.7876 10.114 20.0607 10.3042 20.3897C10.4943 20.7186 10.5946 21.0918 10.595 21.4717V21.6667C10.595 22.2414 10.8233 22.7925 11.2296 23.1988C11.6359 23.6051 12.187 23.8334 12.7617 23.8334H13.2383C13.813 23.8334 14.3641 23.6051 14.7704 23.1988C15.1767 22.7925 15.405 22.2414 15.405 21.6667V21.4717C15.4054 21.0918 15.5057 20.7186 15.6958 20.3897C15.886 20.0607 16.1593 19.7876 16.4883 19.5976L16.9542 19.3267C17.2835 19.1366 17.6572 19.0365 18.0375 19.0365C18.4178 19.0365 18.7915 19.1366 19.1208 19.3267L19.2833 19.4134C19.7805 19.7002 20.3712 19.778 20.9257 19.6297C21.4802 19.4815 21.9532 19.1193 22.2408 18.6226L22.4792 18.2001C22.766 17.7029 22.8438 17.1122 22.6955 16.5578C22.5472 16.0033 22.185 15.5303 21.6883 15.2426L21.5258 15.1559C21.1952 14.965 20.9209 14.6902 20.7306 14.3591C20.5404 14.0281 20.441 13.6527 20.4425 13.2709V12.7292C20.441 12.3475 20.5404 11.972 20.7306 11.641C20.9209 11.31 21.1952 11.0351 21.5258 10.8442L21.6883 10.7467C22.185 10.4591 22.5472 9.98607 22.6955 9.43158C22.8438 8.87709 22.766 8.28643 22.4792 7.78925L22.2408 7.37758C21.9532 6.88091 21.4802 6.51869 20.9257 6.37042C20.3712 6.22215 19.7805 6.29995 19.2833 6.58675L19.1208 6.67341C18.7915 6.86358 18.4178 6.96369 18.0375 6.96369C17.6572 6.96369 17.2835 6.86358 16.9542 6.67341L16.4883 6.40258C16.1593 6.21261 15.886 5.93944 15.6958 5.61049C15.5057 5.28154 15.4054 4.90837 15.405 4.52841V4.33341C15.405 3.75878 15.1767 3.20768 14.7704 2.80135C14.3641 2.39502 13.813 2.16675 13.2383 2.16675Z" stroke="white" stroke-linecap="round" stroke-linejoin="round"/>
<path d="M13 16.25C14.7949 16.25 16.25 14.7949 16.25 13C16.25 11.2051 14.7949 9.75 13 9.75C11.2051 9.75 9.75 11.2051 9.75 13C9.75 14.7949 11.2051 16.25 13 16.25Z" stroke="white" stroke-linecap="round" stroke-linejoin="round"/>
</svg>
