<svg width="24" height="24" viewBox="0 0 24 24" fill="none" xmlns="http://www.w3.org/2000/svg">
<mask id="mask0_264_198" style="mask-type:alpha" maskUnits="userSpaceOnUse" x="0" y="0" width="24" height="24">
<rect width="24" height="24" fill="#D9D9D9"/>
</mask>
<g mask="url(#mask0_264_198)">
<path d="M0.5 21C0.223858 21 0 20.7761 0 20.5V16.0811C0 14.3351 0.627463 12.8446 1.88239 11.6095C3.13731 10.3743 4.65173 9.75676 6.42563 9.75676H20.0442C20.4915 9.75676 20.7137 9.21423 20.3949 8.90041L15.7726 4.35096C15.5735 4.15507 15.5735 3.83414 15.7726 3.63825L16.0703 3.3452C16.2649 3.15367 16.5772 3.15367 16.7718 3.3452L23.6379 10.1031C23.837 10.299 23.837 10.6199 23.6379 10.8158L16.7718 17.5737C16.5772 17.7653 16.2649 17.7653 16.0703 17.5737L15.7726 17.2807C15.5735 17.0848 15.5735 16.7639 15.7726 16.568L20.3949 12.0185C20.7137 11.7047 20.4915 11.1622 20.0442 11.1622H6.42563C5.03434 11.1622 3.85356 11.6396 2.88329 12.5946C1.91304 13.5496 1.42792 14.7117 1.42792 16.0811V20.5C1.42792 20.7761 1.20406 21 0.927917 21H0.5Z" fill="white"/>
</g>
</svg>
