<svg width="26" height="26" viewBox="0 0 26 26" fill="none" xmlns="http://www.w3.org/2000/svg">
<path d="M21 7.5V18.5C21 22.9 19.9375 24 15.6875 24H9.3125C5.0625 24 4 22.9 4 18.5V7.5C4 3.1 5.0625 2 9.3125 2H15.6875C19.9375 2 21 3.1 21 7.5Z" stroke="white" stroke-linecap="round" stroke-linejoin="round"/>
<path d="M14 6H10" stroke="white" stroke-linecap="round" stroke-linejoin="round"/>
<path d="M12.5 21C13.3284 21 14 20.3284 14 19.5C14 18.6716 13.3284 18 12.5 18C11.6716 18 11 18.6716 11 19.5C11 20.3284 11.6716 21 12.5 21Z" stroke="white" stroke-linecap="round" stroke-linejoin="round"/>
</svg>
