<svg width="26" height="26" viewBox="0 0 26 26" fill="none" xmlns="http://www.w3.org/2000/svg">
<g clip-path="url(#clip0_201_4412)">
<path fill-rule="evenodd" clip-rule="evenodd" d="M12.5142 3.15082C12.7129 2.74823 13.287 2.74823 13.4857 3.15082L16.0578 8.36241C16.1366 8.52229 16.2892 8.63309 16.4656 8.65872L22.217 9.49445C22.6612 9.559 22.8386 10.105 22.5171 10.4184L18.3554 14.475C18.2278 14.5995 18.1695 14.7788 18.1996 14.9545L19.1821 20.6825C19.2579 21.1251 18.7935 21.4625 18.3961 21.2535L13.252 18.5491C13.0942 18.4661 12.9057 18.4661 12.7479 18.5491L7.60374 21.2535C7.20636 21.4625 6.74192 21.1251 6.81781 20.6825L7.80026 14.9545C7.83039 14.7788 7.77214 14.5995 7.64447 14.475L3.48277 10.4184C3.16128 10.105 3.33869 9.559 3.78297 9.49445L9.5343 8.65872C9.71074 8.63309 9.86325 8.52229 9.94215 8.36241L12.5142 3.15082Z" stroke="white" stroke-linecap="round"/>
</g>
<defs>
<clipPath id="clip0_201_4412">
<rect width="26" height="26" fill="white"/>
</clipPath>
</defs>
</svg>
