<svg width="26" height="26" viewBox="0 0 26 26" fill="none" xmlns="http://www.w3.org/2000/svg">
<path d="M2 6.68153C2 4.096 4.14712 2 6.79571 2H19.5843C22.233 2 24.38 4.096 24.38 6.68153V19.1656C24.38 21.7512 22.233 23.8471 19.5843 23.8471H6.79571C4.14712 23.8471 2 21.7512 2 19.1656V6.68153Z" stroke="white" stroke-linecap="round" stroke-linejoin="round"/>
<path d="M13.4741 15.47C12.1431 16.3263 10.392 15.3707 10.392 13.788V12.1186C10.392 10.5359 12.1431 9.58028 13.4741 10.4366L14.7715 11.2713C15.9953 12.0587 15.9953 13.8479 14.7715 14.6352L13.4741 15.47Z" stroke="white" stroke-linecap="round" stroke-linejoin="round"/>
<path d="M19.9427 19.051H19.6879C19.3361 19.051 19.051 19.3362 19.051 19.6879C19.051 20.0396 19.3361 20.3248 19.6879 20.3248H19.9427C20.2944 20.3248 20.5795 20.0396 20.5795 19.6879C20.5795 19.3362 20.2944 19.051 19.9427 19.051Z" fill="white"/>
<path d="M17.8112 19.051H17.5564C17.2047 19.051 16.9196 19.3362 16.9196 19.6879C16.9196 20.0396 17.2047 20.3248 17.5564 20.3248H17.8112C18.1629 20.3248 18.4481 20.0396 18.4481 19.6879C18.4481 19.3362 18.1629 19.051 17.8112 19.051Z" fill="white"/>
</svg>
